<?xml version="1.0" encoding="UTF-8" standalone="no"?>
<!DOCTYPE svg PUBLIC "-//W3C//DTD SVG 1.1//EN"
 "http://www.w3.org/Graphics/SVG/1.1/DTD/svg11.dtd">
<!-- Generated by graphviz version 2.49.1 (20210923.0004)
 -->
<!-- Pages: 1 -->
<svg width="134pt" height="305pt"
 viewBox="0.00 0.00 134.00 305.00" xmlns="http://www.w3.org/2000/svg" xmlns:xlink="http://www.w3.org/1999/xlink">
<g id="graph0" class="graph" transform="scale(1 1) rotate(0) translate(4 301)">
<polygon fill="white" stroke="transparent" points="-4,4 -4,-301 130,-301 130,4 -4,4"/>
<!-- D -->
<g id="node1" class="node">
<title>D</title>
<ellipse fill="none" stroke="black" cx="52" cy="-105" rx="27" ry="18"/>
<text text-anchor="middle" x="52" y="-101.3" font-family="Times New Roman,serif" font-size="14.00">D</text>
</g>
<!-- F -->
<g id="node2" class="node">
<title>F</title>
<ellipse fill="none" stroke="black" cx="52" cy="-18" rx="27" ry="18"/>
<text text-anchor="middle" x="52" y="-14.3" font-family="Times New Roman,serif" font-size="14.00">F</text>
</g>
<!-- D&#45;&#45;F -->
<g id="edge1" class="edge">
<title>D&#45;&#45;F</title>
<path fill="none" stroke="black" d="M52,-86.8C52,-72.05 52,-50.92 52,-36.18"/>
<text text-anchor="middle" x="55.5" y="-57.8" font-family="Times New Roman,serif" font-size="14.00">1</text>
</g>
<!-- A -->
<g id="node3" class="node">
<title>A</title>
<ellipse fill="none" stroke="black" cx="27" cy="-192" rx="27" ry="18"/>
<text text-anchor="middle" x="27" y="-188.3" font-family="Times New Roman,serif" font-size="14.00">A</text>
</g>
<!-- A&#45;&#45;D -->
<g id="edge2" class="edge">
<title>A&#45;&#45;D</title>
<path fill="none" stroke="black" d="M31.94,-174.21C36.32,-159.31 42.69,-137.65 47.07,-122.76"/>
<text text-anchor="middle" x="43.5" y="-144.8" font-family="Times New Roman,serif" font-size="14.00">1</text>
</g>
<!-- B -->
<g id="node4" class="node">
<title>B</title>
<ellipse fill="none" stroke="black" cx="99" cy="-192" rx="27" ry="18"/>
<text text-anchor="middle" x="99" y="-188.3" font-family="Times New Roman,serif" font-size="14.00">B</text>
</g>
<!-- B&#45;&#45;D -->
<g id="edge3" class="edge">
<title>B&#45;&#45;D</title>
<path fill="none" stroke="black" d="M89.94,-174.61C81.56,-159.46 69.19,-137.09 60.87,-122.05"/>
<text text-anchor="middle" x="81.5" y="-144.8" font-family="Times New Roman,serif" font-size="14.00">3</text>
</g>
<!-- C -->
<g id="node5" class="node">
<title>C</title>
<ellipse fill="none" stroke="black" cx="99" cy="-279" rx="27" ry="18"/>
<text text-anchor="middle" x="99" y="-275.3" font-family="Times New Roman,serif" font-size="14.00">C</text>
</g>
<!-- C&#45;&#45;B -->
<g id="edge4" class="edge">
<title>C&#45;&#45;B</title>
<path fill="none" stroke="black" d="M99,-260.8C99,-246.05 99,-224.92 99,-210.18"/>
<text text-anchor="middle" x="102.5" y="-231.8" font-family="Times New Roman,serif" font-size="14.00">4</text>
</g>
</g>
</svg>
