<?xml version="1.0" encoding="UTF-8" standalone="no"?>
<!DOCTYPE svg PUBLIC "-//W3C//DTD SVG 1.1//EN"
 "http://www.w3.org/Graphics/SVG/1.1/DTD/svg11.dtd">
<!-- Generated by graphviz version 2.49.1 (20210923.0004)
 -->
<!-- Pages: 1 -->
<svg width="170pt" height="392pt"
 viewBox="0.00 0.00 170.00 392.00" xmlns="http://www.w3.org/2000/svg" xmlns:xlink="http://www.w3.org/1999/xlink">
<g id="graph0" class="graph" transform="scale(1 1) rotate(0) translate(4 388)">
<polygon fill="white" stroke="transparent" points="-4,4 -4,-388 166,-388 166,4 -4,4"/>
<!-- B -->
<g id="node1" class="node">
<title>B</title>
<ellipse fill="none" stroke="black" cx="52" cy="-105" rx="27" ry="18"/>
<text text-anchor="middle" x="52" y="-101.3" font-family="Times New Roman,serif" font-size="14.00">B</text>
</g>
<!-- G -->
<g id="node2" class="node">
<title>G</title>
<ellipse fill="none" stroke="black" cx="52" cy="-18" rx="27" ry="18"/>
<text text-anchor="middle" x="52" y="-14.3" font-family="Times New Roman,serif" font-size="14.00">G</text>
</g>
<!-- B&#45;&#45;G -->
<g id="edge1" class="edge">
<title>B&#45;&#45;G</title>
<path fill="none" stroke="black" d="M52,-86.8C52,-72.05 52,-50.92 52,-36.18"/>
<text text-anchor="middle" x="55.5" y="-57.8" font-family="Times New Roman,serif" font-size="14.00">4</text>
</g>
<!-- F -->
<g id="node3" class="node">
<title>F</title>
<ellipse fill="none" stroke="black" cx="52" cy="-192" rx="27" ry="18"/>
<text text-anchor="middle" x="52" y="-188.3" font-family="Times New Roman,serif" font-size="14.00">F</text>
</g>
<!-- F&#45;&#45;B -->
<g id="edge2" class="edge">
<title>F&#45;&#45;B</title>
<path fill="none" stroke="black" d="M52,-173.8C52,-159.05 52,-137.92 52,-123.18"/>
<text text-anchor="middle" x="55.5" y="-144.8" font-family="Times New Roman,serif" font-size="14.00">5</text>
</g>
<!-- E -->
<g id="node4" class="node">
<title>E</title>
<ellipse fill="none" stroke="black" cx="27" cy="-279" rx="27" ry="18"/>
<text text-anchor="middle" x="27" y="-275.3" font-family="Times New Roman,serif" font-size="14.00">E</text>
</g>
<!-- E&#45;&#45;F -->
<g id="edge3" class="edge">
<title>E&#45;&#45;F</title>
<path fill="none" stroke="black" d="M31.94,-261.21C36.32,-246.31 42.69,-224.65 47.07,-209.76"/>
<text text-anchor="middle" x="44.5" y="-231.8" font-family="Times New Roman,serif" font-size="14.00">5</text>
</g>
<!-- A -->
<g id="node5" class="node">
<title>A</title>
<ellipse fill="none" stroke="black" cx="99" cy="-279" rx="27" ry="18"/>
<text text-anchor="middle" x="99" y="-275.3" font-family="Times New Roman,serif" font-size="14.00">A</text>
</g>
<!-- A&#45;&#45;F -->
<g id="edge4" class="edge">
<title>A&#45;&#45;F</title>
<path fill="none" stroke="black" d="M89.94,-261.61C81.56,-246.46 69.19,-224.09 60.87,-209.05"/>
<text text-anchor="middle" x="81.5" y="-231.8" font-family="Times New Roman,serif" font-size="14.00">3</text>
</g>
<!-- C -->
<g id="node6" class="node">
<title>C</title>
<ellipse fill="none" stroke="black" cx="63" cy="-366" rx="27" ry="18"/>
<text text-anchor="middle" x="63" y="-362.3" font-family="Times New Roman,serif" font-size="14.00">C</text>
</g>
<!-- C&#45;&#45;A -->
<g id="edge5" class="edge">
<title>C&#45;&#45;A</title>
<path fill="none" stroke="black" d="M70.11,-348.21C76.46,-333.21 85.71,-311.37 92.02,-296.47"/>
<text text-anchor="middle" x="86.5" y="-318.8" font-family="Times New Roman,serif" font-size="14.00">2</text>
</g>
<!-- D -->
<g id="node7" class="node">
<title>D</title>
<ellipse fill="none" stroke="black" cx="135" cy="-366" rx="27" ry="18"/>
<text text-anchor="middle" x="135" y="-362.3" font-family="Times New Roman,serif" font-size="14.00">D</text>
</g>
<!-- D&#45;&#45;A -->
<g id="edge6" class="edge">
<title>D&#45;&#45;A</title>
<path fill="none" stroke="black" d="M127.89,-348.21C121.54,-333.21 112.29,-311.37 105.98,-296.47"/>
<text text-anchor="middle" x="122.5" y="-318.8" font-family="Times New Roman,serif" font-size="14.00">5</text>
</g>
</g>
</svg>
