<?xml version="1.0" encoding="UTF-8" standalone="no"?>
<!DOCTYPE svg PUBLIC "-//W3C//DTD SVG 1.1//EN"
 "http://www.w3.org/Graphics/SVG/1.1/DTD/svg11.dtd">
<!-- Generated by graphviz version 2.49.1 (20210923.0004)
 -->
<!-- Pages: 1 -->
<svg width="170pt" height="305pt"
 viewBox="0.00 0.00 170.00 305.00" xmlns="http://www.w3.org/2000/svg" xmlns:xlink="http://www.w3.org/1999/xlink">
<g id="graph0" class="graph" transform="scale(1 1) rotate(0) translate(4 301)">
<polygon fill="white" stroke="transparent" points="-4,4 -4,-301 166,-301 166,4 -4,4"/>
<!-- F -->
<g id="node1" class="node">
<title>F</title>
<ellipse fill="none" stroke="black" cx="117" cy="-105" rx="27" ry="18"/>
<text text-anchor="middle" x="117" y="-101.3" font-family="Times New Roman,serif" font-size="14.00">F</text>
</g>
<!-- C -->
<g id="node2" class="node">
<title>C</title>
<ellipse fill="none" stroke="black" cx="117" cy="-18" rx="27" ry="18"/>
<text text-anchor="middle" x="117" y="-14.3" font-family="Times New Roman,serif" font-size="14.00">C</text>
</g>
<!-- F&#45;&#45;C -->
<g id="edge1" class="edge">
<title>F&#45;&#45;C</title>
<path fill="none" stroke="black" d="M117,-86.8C117,-72.05 117,-50.92 117,-36.18"/>
<text text-anchor="middle" x="120.5" y="-57.8" font-family="Times New Roman,serif" font-size="14.00">5</text>
</g>
<!-- A -->
<g id="node3" class="node">
<title>A</title>
<ellipse fill="none" stroke="black" cx="63" cy="-192" rx="27" ry="18"/>
<text text-anchor="middle" x="63" y="-188.3" font-family="Times New Roman,serif" font-size="14.00">A</text>
</g>
<!-- A&#45;&#45;F -->
<g id="edge2" class="edge">
<title>A&#45;&#45;F</title>
<path fill="none" stroke="black" d="M73.16,-175.01C82.81,-159.82 97.25,-137.09 106.89,-121.92"/>
<text text-anchor="middle" x="97.5" y="-144.8" font-family="Times New Roman,serif" font-size="14.00">4</text>
</g>
<!-- D -->
<g id="node4" class="node">
<title>D</title>
<ellipse fill="none" stroke="black" cx="135" cy="-192" rx="27" ry="18"/>
<text text-anchor="middle" x="135" y="-188.3" font-family="Times New Roman,serif" font-size="14.00">D</text>
</g>
<!-- D&#45;&#45;F -->
<g id="edge3" class="edge">
<title>D&#45;&#45;F</title>
<path fill="none" stroke="black" d="M131.36,-173.8C128.21,-158.95 123.7,-137.64 120.58,-122.89"/>
<text text-anchor="middle" x="130.5" y="-144.8" font-family="Times New Roman,serif" font-size="14.00">2</text>
</g>
<!-- B -->
<g id="node5" class="node">
<title>B</title>
<ellipse fill="none" stroke="black" cx="27" cy="-279" rx="27" ry="18"/>
<text text-anchor="middle" x="27" y="-275.3" font-family="Times New Roman,serif" font-size="14.00">B</text>
</g>
<!-- B&#45;&#45;A -->
<g id="edge4" class="edge">
<title>B&#45;&#45;A</title>
<path fill="none" stroke="black" d="M34.11,-261.21C40.46,-246.21 49.71,-224.37 56.02,-209.47"/>
<text text-anchor="middle" x="51.5" y="-231.8" font-family="Times New Roman,serif" font-size="14.00">4</text>
</g>
<!-- E -->
<g id="node6" class="node">
<title>E</title>
<ellipse fill="none" stroke="black" cx="99" cy="-279" rx="27" ry="18"/>
<text text-anchor="middle" x="99" y="-275.3" font-family="Times New Roman,serif" font-size="14.00">E</text>
</g>
<!-- E&#45;&#45;A -->
<g id="edge5" class="edge">
<title>E&#45;&#45;A</title>
<path fill="none" stroke="black" d="M91.89,-261.21C85.54,-246.21 76.29,-224.37 69.98,-209.47"/>
<text text-anchor="middle" x="87.5" y="-231.8" font-family="Times New Roman,serif" font-size="14.00">2</text>
</g>
</g>
</svg>
