<?xml version="1.0" encoding="UTF-8" standalone="no"?>
<!DOCTYPE svg PUBLIC "-//W3C//DTD SVG 1.1//EN"
 "http://www.w3.org/Graphics/SVG/1.1/DTD/svg11.dtd">
<!-- Generated by graphviz version 2.49.1 (20210923.0004)
 -->
<!-- Pages: 1 -->
<svg width="201pt" height="392pt"
 viewBox="0.00 0.00 201.26 392.00" xmlns="http://www.w3.org/2000/svg" xmlns:xlink="http://www.w3.org/1999/xlink">
<g id="graph0" class="graph" transform="scale(1 1) rotate(0) translate(4 388)">
<polygon fill="white" stroke="transparent" points="-4,4 -4,-388 197.26,-388 197.26,4 -4,4"/>
<!-- A -->
<g id="node1" class="node">
<title>A</title>
<ellipse fill="none" stroke="black" cx="51.26" cy="-366" rx="27" ry="18"/>
<text text-anchor="middle" x="51.26" y="-362.3" font-family="Times New Roman,serif" font-size="14.00">A</text>
</g>
<!-- E -->
<g id="node2" class="node">
<title>E</title>
<ellipse fill="none" stroke="black" cx="114.26" cy="-105" rx="27" ry="18"/>
<text text-anchor="middle" x="114.26" y="-101.3" font-family="Times New Roman,serif" font-size="14.00">E</text>
</g>
<!-- A&#45;&#45;E -->
<g id="edge1" class="edge">
<title>A&#45;&#45;E</title>
<path fill="none" stroke="black" d="M40.16,-349.42C31.46,-336.18 20.05,-316.32 15.26,-297 2.08,-243.95 -10.2,-222.38 15.26,-174 31.09,-143.92 66.89,-124.58 90.82,-114.49"/>
<text text-anchor="middle" x="5.76" y="-231.8" font-family="Times New Roman,serif" font-size="14.00">3</text>
</g>
<!-- B -->
<g id="node3" class="node">
<title>B</title>
<ellipse fill="none" stroke="black" cx="51.26" cy="-279" rx="27" ry="18"/>
<text text-anchor="middle" x="51.26" y="-275.3" font-family="Times New Roman,serif" font-size="14.00">B</text>
</g>
<!-- A&#45;&#45;B -->
<g id="edge2" class="edge">
<title>A&#45;&#45;B</title>
<path fill="none" stroke="black" d="M51.26,-347.8C51.26,-333.05 51.26,-311.92 51.26,-297.18"/>
<text text-anchor="middle" x="54.76" y="-318.8" font-family="Times New Roman,serif" font-size="14.00">5</text>
</g>
<!-- C -->
<g id="node4" class="node">
<title>C</title>
<ellipse fill="none" stroke="black" cx="123.26" cy="-279" rx="27" ry="18"/>
<text text-anchor="middle" x="123.26" y="-275.3" font-family="Times New Roman,serif" font-size="14.00">C</text>
</g>
<!-- A&#45;&#45;C -->
<g id="edge3" class="edge">
<title>A&#45;&#45;C</title>
<path fill="none" stroke="black" d="M64.13,-349.8C77.23,-334.33 97.43,-310.49 110.5,-295.06"/>
<text text-anchor="middle" x="94.76" y="-318.8" font-family="Times New Roman,serif" font-size="14.00">3</text>
</g>
<!-- F -->
<g id="node7" class="node">
<title>F</title>
<ellipse fill="none" stroke="black" cx="114.26" cy="-18" rx="27" ry="18"/>
<text text-anchor="middle" x="114.26" y="-14.3" font-family="Times New Roman,serif" font-size="14.00">F</text>
</g>
<!-- E&#45;&#45;F -->
<g id="edge8" class="edge">
<title>E&#45;&#45;F</title>
<path fill="none" stroke="black" d="M114.26,-86.8C114.26,-72.05 114.26,-50.92 114.26,-36.18"/>
<text text-anchor="middle" x="117.76" y="-57.8" font-family="Times New Roman,serif" font-size="14.00">3</text>
</g>
<!-- G -->
<g id="node5" class="node">
<title>G</title>
<ellipse fill="none" stroke="black" cx="51.26" cy="-192" rx="27" ry="18"/>
<text text-anchor="middle" x="51.26" y="-188.3" font-family="Times New Roman,serif" font-size="14.00">G</text>
</g>
<!-- B&#45;&#45;G -->
<g id="edge4" class="edge">
<title>B&#45;&#45;G</title>
<path fill="none" stroke="black" d="M51.26,-260.8C51.26,-246.05 51.26,-224.92 51.26,-210.18"/>
<text text-anchor="middle" x="54.76" y="-231.8" font-family="Times New Roman,serif" font-size="14.00">2</text>
</g>
<!-- C&#45;&#45;E -->
<g id="edge5" class="edge">
<title>C&#45;&#45;E</title>
<path fill="none" stroke="black" d="M122.36,-260.88C120.64,-227.91 116.87,-155.97 115.15,-123.05"/>
<text text-anchor="middle" x="122.76" y="-188.3" font-family="Times New Roman,serif" font-size="14.00">1</text>
</g>
<!-- D -->
<g id="node6" class="node">
<title>D</title>
<ellipse fill="none" stroke="black" cx="166.26" cy="-192" rx="27" ry="18"/>
<text text-anchor="middle" x="166.26" y="-188.3" font-family="Times New Roman,serif" font-size="14.00">D</text>
</g>
<!-- C&#45;&#45;D -->
<g id="edge6" class="edge">
<title>C&#45;&#45;D</title>
<path fill="none" stroke="black" d="M131.55,-261.61C139.16,-246.56 150.39,-224.37 157.99,-209.34"/>
<text text-anchor="middle" x="150.76" y="-231.8" font-family="Times New Roman,serif" font-size="14.00">3</text>
</g>
<!-- D&#45;&#45;E -->
<g id="edge7" class="edge">
<title>D&#45;&#45;E</title>
<path fill="none" stroke="black" d="M156.48,-175.01C147.18,-159.82 133.28,-137.09 123.99,-121.92"/>
<text text-anchor="middle" x="146.76" y="-144.8" font-family="Times New Roman,serif" font-size="14.00">1</text>
</g>
</g>
</svg>
