<?xml version="1.0" encoding="UTF-8" standalone="no"?>
<!DOCTYPE svg PUBLIC "-//W3C//DTD SVG 1.1//EN"
 "http://www.w3.org/Graphics/SVG/1.1/DTD/svg11.dtd">
<!-- Generated by graphviz version 2.49.1 (20210923.0004)
 -->
<!-- Pages: 1 -->
<svg width="278pt" height="218pt"
 viewBox="0.00 0.00 278.00 218.00" xmlns="http://www.w3.org/2000/svg" xmlns:xlink="http://www.w3.org/1999/xlink">
<g id="graph0" class="graph" transform="scale(1 1) rotate(0) translate(4 214)">
<polygon fill="white" stroke="transparent" points="-4,4 -4,-214 274,-214 274,4 -4,4"/>
<!-- A -->
<g id="node1" class="node">
<title>A</title>
<ellipse fill="none" stroke="black" cx="207" cy="-192" rx="27" ry="18"/>
<text text-anchor="middle" x="207" y="-188.3" font-family="Times New Roman,serif" font-size="14.00">A</text>
</g>
<!-- C -->
<g id="node2" class="node">
<title>C</title>
<ellipse fill="none" stroke="black" cx="171" cy="-105" rx="27" ry="18"/>
<text text-anchor="middle" x="171" y="-101.3" font-family="Times New Roman,serif" font-size="14.00">C</text>
</g>
<!-- A&#45;&#45;C -->
<g id="edge1" class="edge">
<title>A&#45;&#45;C</title>
<path fill="none" stroke="black" d="M199.89,-174.21C193.54,-159.21 184.29,-137.37 177.98,-122.47"/>
<text text-anchor="middle" x="194.5" y="-144.8" font-family="Times New Roman,serif" font-size="14.00">3</text>
</g>
<!-- B -->
<g id="node3" class="node">
<title>B</title>
<ellipse fill="none" stroke="black" cx="243" cy="-105" rx="27" ry="18"/>
<text text-anchor="middle" x="243" y="-101.3" font-family="Times New Roman,serif" font-size="14.00">B</text>
</g>
<!-- A&#45;&#45;B -->
<g id="edge2" class="edge">
<title>A&#45;&#45;B</title>
<path fill="none" stroke="black" d="M214.11,-174.21C220.46,-159.21 229.71,-137.37 236.02,-122.47"/>
<text text-anchor="middle" x="230.5" y="-144.8" font-family="Times New Roman,serif" font-size="14.00">3</text>
</g>
<!-- E -->
<g id="node4" class="node">
<title>E</title>
<ellipse fill="none" stroke="black" cx="243" cy="-18" rx="27" ry="18"/>
<text text-anchor="middle" x="243" y="-14.3" font-family="Times New Roman,serif" font-size="14.00">E</text>
</g>
<!-- C&#45;&#45;E -->
<g id="edge7" class="edge">
<title>C&#45;&#45;E</title>
<path fill="none" stroke="black" d="M183.87,-88.8C196.98,-73.33 217.17,-49.49 230.24,-34.06"/>
<text text-anchor="middle" x="214.5" y="-57.8" font-family="Times New Roman,serif" font-size="14.00">1</text>
</g>
<!-- G -->
<g id="node5" class="node">
<title>G</title>
<ellipse fill="none" stroke="black" cx="27" cy="-18" rx="27" ry="18"/>
<text text-anchor="middle" x="27" y="-14.3" font-family="Times New Roman,serif" font-size="14.00">G</text>
</g>
<!-- C&#45;&#45;G -->
<g id="edge4" class="edge">
<title>C&#45;&#45;G</title>
<path fill="none" stroke="black" d="M151.28,-92.36C123.7,-76.08 73.93,-46.7 46.48,-30.5"/>
<text text-anchor="middle" x="111.5" y="-57.8" font-family="Times New Roman,serif" font-size="14.00">1</text>
</g>
<!-- F -->
<g id="node6" class="node">
<title>F</title>
<ellipse fill="none" stroke="black" cx="99" cy="-18" rx="27" ry="18"/>
<text text-anchor="middle" x="99" y="-14.3" font-family="Times New Roman,serif" font-size="14.00">F</text>
</g>
<!-- C&#45;&#45;F -->
<g id="edge5" class="edge">
<title>C&#45;&#45;F</title>
<path fill="none" stroke="black" d="M158.13,-88.8C145.02,-73.33 124.83,-49.49 111.76,-34.06"/>
<text text-anchor="middle" x="142.5" y="-57.8" font-family="Times New Roman,serif" font-size="14.00">3</text>
</g>
<!-- D -->
<g id="node7" class="node">
<title>D</title>
<ellipse fill="none" stroke="black" cx="171" cy="-18" rx="27" ry="18"/>
<text text-anchor="middle" x="171" y="-14.3" font-family="Times New Roman,serif" font-size="14.00">D</text>
</g>
<!-- C&#45;&#45;D -->
<g id="edge6" class="edge">
<title>C&#45;&#45;D</title>
<path fill="none" stroke="black" d="M171,-86.8C171,-72.05 171,-50.92 171,-36.18"/>
<text text-anchor="middle" x="174.5" y="-57.8" font-family="Times New Roman,serif" font-size="14.00">4</text>
</g>
<!-- B&#45;&#45;E -->
<g id="edge3" class="edge">
<title>B&#45;&#45;E</title>
<path fill="none" stroke="black" d="M243,-86.8C243,-72.05 243,-50.92 243,-36.18"/>
<text text-anchor="middle" x="246.5" y="-57.8" font-family="Times New Roman,serif" font-size="14.00">4</text>
</g>
</g>
</svg>
