<?xml version="1.0" encoding="UTF-8" standalone="no"?>
<!DOCTYPE svg PUBLIC "-//W3C//DTD SVG 1.1//EN"
 "http://www.w3.org/Graphics/SVG/1.1/DTD/svg11.dtd">
<!-- Generated by graphviz version 2.49.1 (20210923.0004)
 -->
<!-- Pages: 1 -->
<svg width="206pt" height="218pt"
 viewBox="0.00 0.00 206.00 218.00" xmlns="http://www.w3.org/2000/svg" xmlns:xlink="http://www.w3.org/1999/xlink">
<g id="graph0" class="graph" transform="scale(1 1) rotate(0) translate(4 214)">
<polygon fill="white" stroke="transparent" points="-4,4 -4,-214 202,-214 202,4 -4,4"/>
<!-- A -->
<g id="node1" class="node">
<title>A</title>
<ellipse fill="none" stroke="black" cx="48" cy="-192" rx="27" ry="18"/>
<text text-anchor="middle" x="48" y="-188.3" font-family="Times New Roman,serif" font-size="14.00">A</text>
</g>
<!-- G -->
<g id="node2" class="node">
<title>G</title>
<ellipse fill="none" stroke="black" cx="27" cy="-18" rx="27" ry="18"/>
<text text-anchor="middle" x="27" y="-14.3" font-family="Times New Roman,serif" font-size="14.00">G</text>
</g>
<!-- A&#45;&#45;G -->
<g id="edge1" class="edge">
<title>A&#45;&#45;G</title>
<path fill="none" stroke="black" d="M44.57,-174.02C41.91,-160.3 38.29,-140.47 36,-123 32.01,-92.63 29.37,-57.04 28.03,-36.35"/>
<text text-anchor="middle" x="39.5" y="-101.3" font-family="Times New Roman,serif" font-size="14.00">5</text>
</g>
<!-- D -->
<g id="node3" class="node">
<title>D</title>
<ellipse fill="none" stroke="black" cx="79" cy="-105" rx="27" ry="18"/>
<text text-anchor="middle" x="79" y="-101.3" font-family="Times New Roman,serif" font-size="14.00">D</text>
</g>
<!-- A&#45;&#45;D -->
<g id="edge2" class="edge">
<title>A&#45;&#45;D</title>
<path fill="none" stroke="black" d="M54.12,-174.21C59.56,-159.31 67.46,-137.65 72.89,-122.76"/>
<text text-anchor="middle" x="68.5" y="-144.8" font-family="Times New Roman,serif" font-size="14.00">3</text>
</g>
<!-- D&#45;&#45;G -->
<g id="edge6" class="edge">
<title>D&#45;&#45;G</title>
<path fill="none" stroke="black" d="M69.22,-88.01C59.92,-72.82 46.02,-50.09 36.74,-34.92"/>
<text text-anchor="middle" x="59.5" y="-57.8" font-family="Times New Roman,serif" font-size="14.00">2</text>
</g>
<!-- E -->
<g id="node5" class="node">
<title>E</title>
<ellipse fill="none" stroke="black" cx="99" cy="-18" rx="27" ry="18"/>
<text text-anchor="middle" x="99" y="-14.3" font-family="Times New Roman,serif" font-size="14.00">E</text>
</g>
<!-- D&#45;&#45;E -->
<g id="edge5" class="edge">
<title>D&#45;&#45;E</title>
<path fill="none" stroke="black" d="M83.05,-86.8C86.54,-71.95 91.56,-50.64 95.03,-35.89"/>
<text text-anchor="middle" x="93.5" y="-57.8" font-family="Times New Roman,serif" font-size="14.00">3</text>
</g>
<!-- B -->
<g id="node4" class="node">
<title>B</title>
<ellipse fill="none" stroke="black" cx="161" cy="-105" rx="27" ry="18"/>
<text text-anchor="middle" x="161" y="-101.3" font-family="Times New Roman,serif" font-size="14.00">B</text>
</g>
<!-- B&#45;&#45;E -->
<g id="edge3" class="edge">
<title>B&#45;&#45;E</title>
<path fill="none" stroke="black" d="M149.63,-88.41C138.44,-73.07 121.46,-49.79 110.3,-34.49"/>
<text text-anchor="middle" x="136.5" y="-57.8" font-family="Times New Roman,serif" font-size="14.00">5</text>
</g>
<!-- C -->
<g id="node6" class="node">
<title>C</title>
<ellipse fill="none" stroke="black" cx="171" cy="-18" rx="27" ry="18"/>
<text text-anchor="middle" x="171" y="-14.3" font-family="Times New Roman,serif" font-size="14.00">C</text>
</g>
<!-- B&#45;&#45;C -->
<g id="edge4" class="edge">
<title>B&#45;&#45;C</title>
<path fill="none" stroke="black" d="M163.02,-86.8C164.76,-72.05 167.25,-50.92 168.98,-36.18"/>
<text text-anchor="middle" x="169.5" y="-57.8" font-family="Times New Roman,serif" font-size="14.00">1</text>
</g>
<!-- F -->
<g id="node7" class="node">
<title>F</title>
<ellipse fill="none" stroke="black" cx="120" cy="-192" rx="27" ry="18"/>
<text text-anchor="middle" x="120" y="-188.3" font-family="Times New Roman,serif" font-size="14.00">F</text>
</g>
</g>
</svg>
