<?xml version="1.0" encoding="UTF-8" standalone="no"?>
<!DOCTYPE svg PUBLIC "-//W3C//DTD SVG 1.1//EN"
 "http://www.w3.org/Graphics/SVG/1.1/DTD/svg11.dtd">
<!-- Generated by graphviz version 2.49.1 (20210923.0004)
 -->
<!-- Pages: 1 -->
<svg width="275pt" height="218pt"
 viewBox="0.00 0.00 275.00 218.00" xmlns="http://www.w3.org/2000/svg" xmlns:xlink="http://www.w3.org/1999/xlink">
<g id="graph0" class="graph" transform="scale(1 1) rotate(0) translate(4 214)">
<polygon fill="white" stroke="transparent" points="-4,4 -4,-214 271,-214 271,4 -4,4"/>
<!-- A -->
<g id="node1" class="node">
<title>A</title>
<ellipse fill="none" stroke="black" cx="100" cy="-192" rx="27" ry="18"/>
<text text-anchor="middle" x="100" y="-188.3" font-family="Times New Roman,serif" font-size="14.00">A</text>
</g>
<!-- F -->
<g id="node2" class="node">
<title>F</title>
<ellipse fill="none" stroke="black" cx="168" cy="-18" rx="27" ry="18"/>
<text text-anchor="middle" x="168" y="-14.3" font-family="Times New Roman,serif" font-size="14.00">F</text>
</g>
<!-- A&#45;&#45;F -->
<g id="edge1" class="edge">
<title>A&#45;&#45;F</title>
<path fill="none" stroke="black" d="M102.35,-173.89C105.64,-152.83 112.64,-116.25 125,-87 133.16,-67.7 146.52,-47.67 156.18,-34.39"/>
<text text-anchor="middle" x="128.5" y="-101.3" font-family="Times New Roman,serif" font-size="14.00">3</text>
</g>
<!-- C -->
<g id="node3" class="node">
<title>C</title>
<ellipse fill="none" stroke="black" cx="53" cy="-105" rx="27" ry="18"/>
<text text-anchor="middle" x="53" y="-101.3" font-family="Times New Roman,serif" font-size="14.00">C</text>
</g>
<!-- A&#45;&#45;C -->
<g id="edge2" class="edge">
<title>A&#45;&#45;C</title>
<path fill="none" stroke="black" d="M90.94,-174.61C82.56,-159.46 70.19,-137.09 61.87,-122.05"/>
<text text-anchor="middle" x="82.5" y="-144.8" font-family="Times New Roman,serif" font-size="14.00">2</text>
</g>
<!-- D -->
<g id="node4" class="node">
<title>D</title>
<ellipse fill="none" stroke="black" cx="27" cy="-18" rx="27" ry="18"/>
<text text-anchor="middle" x="27" y="-14.3" font-family="Times New Roman,serif" font-size="14.00">D</text>
</g>
<!-- A&#45;&#45;D -->
<g id="edge3" class="edge">
<title>A&#45;&#45;D</title>
<path fill="none" stroke="black" d="M77.82,-181.52C56.03,-170.84 24.05,-151.23 10,-123 -4.19,-94.5 8.77,-56.7 18.52,-35.4"/>
<text text-anchor="middle" x="13.5" y="-101.3" font-family="Times New Roman,serif" font-size="14.00">5</text>
</g>
<!-- E -->
<g id="node5" class="node">
<title>E</title>
<ellipse fill="none" stroke="black" cx="168" cy="-105" rx="27" ry="18"/>
<text text-anchor="middle" x="168" y="-101.3" font-family="Times New Roman,serif" font-size="14.00">E</text>
</g>
<!-- A&#45;&#45;E -->
<g id="edge4" class="edge">
<title>A&#45;&#45;E</title>
<path fill="none" stroke="black" d="M113.04,-176.17C118.38,-170 124.57,-162.72 130,-156 139.18,-144.63 149.16,-131.47 156.59,-121.5"/>
<text text-anchor="middle" x="144.5" y="-144.8" font-family="Times New Roman,serif" font-size="14.00">2</text>
</g>
<!-- C&#45;&#45;D -->
<g id="edge7" class="edge">
<title>C&#45;&#45;D</title>
<path fill="none" stroke="black" d="M47.86,-87.21C43.31,-72.31 36.68,-50.65 32.13,-35.76"/>
<text text-anchor="middle" x="44.5" y="-57.8" font-family="Times New Roman,serif" font-size="14.00">5</text>
</g>
<!-- E&#45;&#45;F -->
<g id="edge8" class="edge">
<title>E&#45;&#45;F</title>
<path fill="none" stroke="black" d="M168,-86.8C168,-72.05 168,-50.92 168,-36.18"/>
<text text-anchor="middle" x="171.5" y="-57.8" font-family="Times New Roman,serif" font-size="14.00">5</text>
</g>
<!-- B -->
<g id="node6" class="node">
<title>B</title>
<ellipse fill="none" stroke="black" cx="240" cy="-105" rx="27" ry="18"/>
<text text-anchor="middle" x="240" y="-101.3" font-family="Times New Roman,serif" font-size="14.00">B</text>
</g>
<!-- B&#45;&#45;F -->
<g id="edge5" class="edge">
<title>B&#45;&#45;F</title>
<path fill="none" stroke="black" d="M227.13,-88.8C214.02,-73.33 193.83,-49.49 180.76,-34.06"/>
<text text-anchor="middle" x="211.5" y="-57.8" font-family="Times New Roman,serif" font-size="14.00">5</text>
</g>
<!-- G -->
<g id="node7" class="node">
<title>G</title>
<ellipse fill="none" stroke="black" cx="240" cy="-18" rx="27" ry="18"/>
<text text-anchor="middle" x="240" y="-14.3" font-family="Times New Roman,serif" font-size="14.00">G</text>
</g>
<!-- B&#45;&#45;G -->
<g id="edge6" class="edge">
<title>B&#45;&#45;G</title>
<path fill="none" stroke="black" d="M240,-86.8C240,-72.05 240,-50.92 240,-36.18"/>
<text text-anchor="middle" x="243.5" y="-57.8" font-family="Times New Roman,serif" font-size="14.00">4</text>
</g>
</g>
</svg>
