<?xml version="1.0" encoding="UTF-8" standalone="no"?>
<!DOCTYPE svg PUBLIC "-//W3C//DTD SVG 1.1//EN"
 "http://www.w3.org/Graphics/SVG/1.1/DTD/svg11.dtd">
<!-- Generated by graphviz version 2.49.1 (20210923.0004)
 -->
<!-- Pages: 1 -->
<svg width="153pt" height="305pt"
 viewBox="0.00 0.00 152.88 305.00" xmlns="http://www.w3.org/2000/svg" xmlns:xlink="http://www.w3.org/1999/xlink">
<g id="graph0" class="graph" transform="scale(1 1) rotate(0) translate(4 301)">
<polygon fill="white" stroke="transparent" points="-4,4 -4,-301 148.88,-301 148.88,4 -4,4"/>
<!-- A -->
<g id="node1" class="node">
<title>A</title>
<ellipse fill="none" stroke="black" cx="45.88" cy="-279" rx="27" ry="18"/>
<text text-anchor="middle" x="45.88" y="-275.3" font-family="Times New Roman,serif" font-size="14.00">A</text>
</g>
<!-- F -->
<g id="node2" class="node">
<title>F</title>
<ellipse fill="none" stroke="black" cx="45.88" cy="-18" rx="27" ry="18"/>
<text text-anchor="middle" x="45.88" y="-14.3" font-family="Times New Roman,serif" font-size="14.00">F</text>
</g>
<!-- A&#45;&#45;F -->
<g id="edge1" class="edge">
<title>A&#45;&#45;F</title>
<path fill="none" stroke="black" d="M34.79,-262.42C26.09,-249.18 14.68,-229.32 9.88,-210 -3.29,-156.95 -3.29,-140.05 9.88,-87 14.68,-67.68 26.09,-47.82 34.79,-34.58"/>
<text text-anchor="middle" x="4.38" y="-144.8" font-family="Times New Roman,serif" font-size="14.00">4</text>
</g>
<!-- B -->
<g id="node3" class="node">
<title>B</title>
<ellipse fill="none" stroke="black" cx="45.88" cy="-192" rx="27" ry="18"/>
<text text-anchor="middle" x="45.88" y="-188.3" font-family="Times New Roman,serif" font-size="14.00">B</text>
</g>
<!-- A&#45;&#45;B -->
<g id="edge2" class="edge">
<title>A&#45;&#45;B</title>
<path fill="none" stroke="black" d="M45.88,-260.8C45.88,-246.05 45.88,-224.92 45.88,-210.18"/>
<text text-anchor="middle" x="49.38" y="-231.8" font-family="Times New Roman,serif" font-size="14.00">4</text>
</g>
<!-- E -->
<g id="node4" class="node">
<title>E</title>
<ellipse fill="none" stroke="black" cx="117.88" cy="-192" rx="27" ry="18"/>
<text text-anchor="middle" x="117.88" y="-188.3" font-family="Times New Roman,serif" font-size="14.00">E</text>
</g>
<!-- A&#45;&#45;E -->
<g id="edge3" class="edge">
<title>A&#45;&#45;E</title>
<path fill="none" stroke="black" d="M58.76,-262.8C71.86,-247.33 92.06,-223.49 105.12,-208.06"/>
<text text-anchor="middle" x="89.38" y="-231.8" font-family="Times New Roman,serif" font-size="14.00">2</text>
</g>
<!-- D -->
<g id="node5" class="node">
<title>D</title>
<ellipse fill="none" stroke="black" cx="45.88" cy="-105" rx="27" ry="18"/>
<text text-anchor="middle" x="45.88" y="-101.3" font-family="Times New Roman,serif" font-size="14.00">D</text>
</g>
<!-- B&#45;&#45;D -->
<g id="edge4" class="edge">
<title>B&#45;&#45;D</title>
<path fill="none" stroke="black" d="M45.88,-173.8C45.88,-159.05 45.88,-137.92 45.88,-123.18"/>
<text text-anchor="middle" x="49.38" y="-144.8" font-family="Times New Roman,serif" font-size="14.00">3</text>
</g>
<!-- D&#45;&#45;F -->
<g id="edge6" class="edge">
<title>D&#45;&#45;F</title>
<path fill="none" stroke="black" d="M45.88,-86.8C45.88,-72.05 45.88,-50.92 45.88,-36.18"/>
<text text-anchor="middle" x="49.38" y="-57.8" font-family="Times New Roman,serif" font-size="14.00">2</text>
</g>
<!-- C -->
<g id="node6" class="node">
<title>C</title>
<ellipse fill="none" stroke="black" cx="117.88" cy="-105" rx="27" ry="18"/>
<text text-anchor="middle" x="117.88" y="-101.3" font-family="Times New Roman,serif" font-size="14.00">C</text>
</g>
<!-- C&#45;&#45;F -->
<g id="edge5" class="edge">
<title>C&#45;&#45;F</title>
<path fill="none" stroke="black" d="M105.01,-88.8C91.91,-73.33 71.71,-49.49 58.64,-34.06"/>
<text text-anchor="middle" x="89.38" y="-57.8" font-family="Times New Roman,serif" font-size="14.00">5</text>
</g>
<!-- G -->
<g id="node7" class="node">
<title>G</title>
<ellipse fill="none" stroke="black" cx="117.88" cy="-279" rx="27" ry="18"/>
<text text-anchor="middle" x="117.88" y="-275.3" font-family="Times New Roman,serif" font-size="14.00">G</text>
</g>
</g>
</svg>
