<?xml version="1.0" encoding="UTF-8" standalone="no"?>
<!DOCTYPE svg PUBLIC "-//W3C//DTD SVG 1.1//EN"
 "http://www.w3.org/Graphics/SVG/1.1/DTD/svg11.dtd">
<!-- Generated by graphviz version 2.49.1 (20210923.0004)
 -->
<!-- Pages: 1 -->
<svg width="206pt" height="305pt"
 viewBox="0.00 0.00 206.00 305.00" xmlns="http://www.w3.org/2000/svg" xmlns:xlink="http://www.w3.org/1999/xlink">
<g id="graph0" class="graph" transform="scale(1 1) rotate(0) translate(4 301)">
<polygon fill="white" stroke="transparent" points="-4,4 -4,-301 202,-301 202,4 -4,4"/>
<!-- F -->
<g id="node1" class="node">
<title>F</title>
<ellipse fill="none" stroke="black" cx="99" cy="-105" rx="27" ry="18"/>
<text text-anchor="middle" x="99" y="-101.3" font-family="Times New Roman,serif" font-size="14.00">F</text>
</g>
<!-- G -->
<g id="node2" class="node">
<title>G</title>
<ellipse fill="none" stroke="black" cx="42" cy="-18" rx="27" ry="18"/>
<text text-anchor="middle" x="42" y="-14.3" font-family="Times New Roman,serif" font-size="14.00">G</text>
</g>
<!-- F&#45;&#45;G -->
<g id="edge1" class="edge">
<title>F&#45;&#45;G</title>
<path fill="none" stroke="black" d="M88.28,-88.01C78.02,-72.72 62.65,-49.8 52.48,-34.63"/>
<text text-anchor="middle" x="76.5" y="-57.8" font-family="Times New Roman,serif" font-size="14.00">4</text>
</g>
<!-- A -->
<g id="node3" class="node">
<title>A</title>
<ellipse fill="none" stroke="black" cx="27" cy="-105" rx="27" ry="18"/>
<text text-anchor="middle" x="27" y="-101.3" font-family="Times New Roman,serif" font-size="14.00">A</text>
</g>
<!-- A&#45;&#45;G -->
<g id="edge2" class="edge">
<title>A&#45;&#45;G</title>
<path fill="none" stroke="black" d="M30.04,-86.8C32.64,-72.05 36.37,-50.92 38.97,-36.18"/>
<text text-anchor="middle" x="38.5" y="-57.8" font-family="Times New Roman,serif" font-size="14.00">4</text>
</g>
<!-- E -->
<g id="node4" class="node">
<title>E</title>
<ellipse fill="none" stroke="black" cx="27" cy="-192" rx="27" ry="18"/>
<text text-anchor="middle" x="27" y="-188.3" font-family="Times New Roman,serif" font-size="14.00">E</text>
</g>
<!-- E&#45;&#45;F -->
<g id="edge3" class="edge">
<title>E&#45;&#45;F</title>
<path fill="none" stroke="black" d="M39.87,-175.8C52.98,-160.33 73.17,-136.49 86.24,-121.06"/>
<text text-anchor="middle" x="70.5" y="-144.8" font-family="Times New Roman,serif" font-size="14.00">4</text>
</g>
<!-- D -->
<g id="node5" class="node">
<title>D</title>
<ellipse fill="none" stroke="black" cx="99" cy="-192" rx="27" ry="18"/>
<text text-anchor="middle" x="99" y="-188.3" font-family="Times New Roman,serif" font-size="14.00">D</text>
</g>
<!-- D&#45;&#45;F -->
<g id="edge4" class="edge">
<title>D&#45;&#45;F</title>
<path fill="none" stroke="black" d="M99,-173.8C99,-159.05 99,-137.92 99,-123.18"/>
<text text-anchor="middle" x="102.5" y="-144.8" font-family="Times New Roman,serif" font-size="14.00">2</text>
</g>
<!-- C -->
<g id="node6" class="node">
<title>C</title>
<ellipse fill="none" stroke="black" cx="171" cy="-192" rx="27" ry="18"/>
<text text-anchor="middle" x="171" y="-188.3" font-family="Times New Roman,serif" font-size="14.00">C</text>
</g>
<!-- C&#45;&#45;F -->
<g id="edge5" class="edge">
<title>C&#45;&#45;F</title>
<path fill="none" stroke="black" d="M158.13,-175.8C145.02,-160.33 124.83,-136.49 111.76,-121.06"/>
<text text-anchor="middle" x="142.5" y="-144.8" font-family="Times New Roman,serif" font-size="14.00">5</text>
</g>
<!-- B -->
<g id="node7" class="node">
<title>B</title>
<ellipse fill="none" stroke="black" cx="171" cy="-279" rx="27" ry="18"/>
<text text-anchor="middle" x="171" y="-275.3" font-family="Times New Roman,serif" font-size="14.00">B</text>
</g>
<!-- B&#45;&#45;C -->
<g id="edge6" class="edge">
<title>B&#45;&#45;C</title>
<path fill="none" stroke="black" d="M171,-260.8C171,-246.05 171,-224.92 171,-210.18"/>
<text text-anchor="middle" x="174.5" y="-231.8" font-family="Times New Roman,serif" font-size="14.00">4</text>
</g>
</g>
</svg>
