<?xml version="1.0" encoding="UTF-8" standalone="no"?>
<!DOCTYPE svg PUBLIC "-//W3C//DTD SVG 1.1//EN"
 "http://www.w3.org/Graphics/SVG/1.1/DTD/svg11.dtd">
<!-- Generated by graphviz version 2.49.1 (20210923.0004)
 -->
<!-- Pages: 1 -->
<svg width="209pt" height="305pt"
 viewBox="0.00 0.00 209.00 305.00" xmlns="http://www.w3.org/2000/svg" xmlns:xlink="http://www.w3.org/1999/xlink">
<g id="graph0" class="graph" transform="scale(1 1) rotate(0) translate(4 301)">
<polygon fill="white" stroke="transparent" points="-4,4 -4,-301 205,-301 205,4 -4,4"/>
<!-- A -->
<g id="node1" class="node">
<title>A</title>
<ellipse fill="none" stroke="black" cx="27" cy="-279" rx="27" ry="18"/>
<text text-anchor="middle" x="27" y="-275.3" font-family="Times New Roman,serif" font-size="14.00">A</text>
</g>
<!-- C -->
<g id="node2" class="node">
<title>C</title>
<ellipse fill="none" stroke="black" cx="27" cy="-192" rx="27" ry="18"/>
<text text-anchor="middle" x="27" y="-188.3" font-family="Times New Roman,serif" font-size="14.00">C</text>
</g>
<!-- A&#45;&#45;C -->
<g id="edge1" class="edge">
<title>A&#45;&#45;C</title>
<path fill="none" stroke="black" d="M27,-260.8C27,-246.05 27,-224.92 27,-210.18"/>
<text text-anchor="middle" x="30.5" y="-231.8" font-family="Times New Roman,serif" font-size="14.00">2</text>
</g>
<!-- B -->
<g id="node3" class="node">
<title>B</title>
<ellipse fill="none" stroke="black" cx="137" cy="-279" rx="27" ry="18"/>
<text text-anchor="middle" x="137" y="-275.3" font-family="Times New Roman,serif" font-size="14.00">B</text>
</g>
<!-- F -->
<g id="node4" class="node">
<title>F</title>
<ellipse fill="none" stroke="black" cx="94" cy="-18" rx="27" ry="18"/>
<text text-anchor="middle" x="94" y="-14.3" font-family="Times New Roman,serif" font-size="14.00">F</text>
</g>
<!-- B&#45;&#45;F -->
<g id="edge2" class="edge">
<title>B&#45;&#45;F</title>
<path fill="none" stroke="black" d="M126.09,-262.37C117.5,-249.11 106.15,-229.23 101,-210 84.3,-147.66 88.93,-69.79 92.13,-35.98"/>
<text text-anchor="middle" x="95.5" y="-144.8" font-family="Times New Roman,serif" font-size="14.00">1</text>
</g>
<!-- D -->
<g id="node5" class="node">
<title>D</title>
<ellipse fill="none" stroke="black" cx="137" cy="-192" rx="27" ry="18"/>
<text text-anchor="middle" x="137" y="-188.3" font-family="Times New Roman,serif" font-size="14.00">D</text>
</g>
<!-- B&#45;&#45;D -->
<g id="edge3" class="edge">
<title>B&#45;&#45;D</title>
<path fill="none" stroke="black" d="M137,-260.8C137,-246.05 137,-224.92 137,-210.18"/>
<text text-anchor="middle" x="140.5" y="-231.8" font-family="Times New Roman,serif" font-size="14.00">1</text>
</g>
<!-- G -->
<g id="node6" class="node">
<title>G</title>
<ellipse fill="none" stroke="black" cx="174" cy="-18" rx="27" ry="18"/>
<text text-anchor="middle" x="174" y="-14.3" font-family="Times New Roman,serif" font-size="14.00">G</text>
</g>
<!-- B&#45;&#45;G -->
<g id="edge4" class="edge">
<title>B&#45;&#45;G</title>
<path fill="none" stroke="black" d="M148.07,-262.41C156.75,-249.17 168.15,-229.3 173,-210 188.71,-147.45 181.13,-69.69 176.57,-35.94"/>
<text text-anchor="middle" x="185.5" y="-144.8" font-family="Times New Roman,serif" font-size="14.00">3</text>
</g>
<!-- E -->
<g id="node7" class="node">
<title>E</title>
<ellipse fill="none" stroke="black" cx="137" cy="-105" rx="27" ry="18"/>
<text text-anchor="middle" x="137" y="-101.3" font-family="Times New Roman,serif" font-size="14.00">E</text>
</g>
<!-- D&#45;&#45;E -->
<g id="edge5" class="edge">
<title>D&#45;&#45;E</title>
<path fill="none" stroke="black" d="M137,-173.8C137,-159.05 137,-137.92 137,-123.18"/>
<text text-anchor="middle" x="140.5" y="-144.8" font-family="Times New Roman,serif" font-size="14.00">3</text>
</g>
<!-- E&#45;&#45;F -->
<g id="edge7" class="edge">
<title>E&#45;&#45;F</title>
<path fill="none" stroke="black" d="M128.71,-87.61C121.09,-72.56 109.87,-50.37 102.27,-35.34"/>
<text text-anchor="middle" x="122.5" y="-57.8" font-family="Times New Roman,serif" font-size="14.00">1</text>
</g>
<!-- E&#45;&#45;G -->
<g id="edge6" class="edge">
<title>E&#45;&#45;G</title>
<path fill="none" stroke="black" d="M144.13,-87.61C150.64,-72.66 160.22,-50.66 166.76,-35.63"/>
<text text-anchor="middle" x="160.5" y="-57.8" font-family="Times New Roman,serif" font-size="14.00">5</text>
</g>
</g>
</svg>
