<?xml version="1.0" encoding="UTF-8" standalone="no"?>
<!DOCTYPE svg PUBLIC "-//W3C//DTD SVG 1.1//EN"
 "http://www.w3.org/Graphics/SVG/1.1/DTD/svg11.dtd">
<!-- Generated by graphviz version 2.49.1 (20210923.0004)
 -->
<!-- Pages: 1 -->
<svg width="206pt" height="305pt"
 viewBox="0.00 0.00 206.00 305.00" xmlns="http://www.w3.org/2000/svg" xmlns:xlink="http://www.w3.org/1999/xlink">
<g id="graph0" class="graph" transform="scale(1 1) rotate(0) translate(4 301)">
<polygon fill="white" stroke="transparent" points="-4,4 -4,-301 202,-301 202,4 -4,4"/>
<!-- A -->
<g id="node1" class="node">
<title>A</title>
<ellipse fill="none" stroke="black" cx="48" cy="-279" rx="27" ry="18"/>
<text text-anchor="middle" x="48" y="-275.3" font-family="Times New Roman,serif" font-size="14.00">A</text>
</g>
<!-- E -->
<g id="node2" class="node">
<title>E</title>
<ellipse fill="none" stroke="black" cx="27" cy="-105" rx="27" ry="18"/>
<text text-anchor="middle" x="27" y="-101.3" font-family="Times New Roman,serif" font-size="14.00">E</text>
</g>
<!-- A&#45;&#45;E -->
<g id="edge1" class="edge">
<title>A&#45;&#45;E</title>
<path fill="none" stroke="black" d="M44.57,-261.02C41.91,-247.3 38.29,-227.47 36,-210 32.01,-179.63 29.37,-144.04 28.03,-123.35"/>
<text text-anchor="middle" x="39.5" y="-188.3" font-family="Times New Roman,serif" font-size="14.00">4</text>
</g>
<!-- C -->
<g id="node3" class="node">
<title>C</title>
<ellipse fill="none" stroke="black" cx="79" cy="-192" rx="27" ry="18"/>
<text text-anchor="middle" x="79" y="-188.3" font-family="Times New Roman,serif" font-size="14.00">C</text>
</g>
<!-- A&#45;&#45;C -->
<g id="edge2" class="edge">
<title>A&#45;&#45;C</title>
<path fill="none" stroke="black" d="M54.12,-261.21C59.56,-246.31 67.46,-224.65 72.89,-209.76"/>
<text text-anchor="middle" x="68.5" y="-231.8" font-family="Times New Roman,serif" font-size="14.00">4</text>
</g>
<!-- G -->
<g id="node7" class="node">
<title>G</title>
<ellipse fill="none" stroke="black" cx="99" cy="-18" rx="27" ry="18"/>
<text text-anchor="middle" x="99" y="-14.3" font-family="Times New Roman,serif" font-size="14.00">G</text>
</g>
<!-- E&#45;&#45;G -->
<g id="edge7" class="edge">
<title>E&#45;&#45;G</title>
<path fill="none" stroke="black" d="M39.87,-88.8C52.98,-73.33 73.17,-49.49 86.24,-34.06"/>
<text text-anchor="middle" x="70.5" y="-57.8" font-family="Times New Roman,serif" font-size="14.00">3</text>
</g>
<!-- C&#45;&#45;E -->
<g id="edge5" class="edge">
<title>C&#45;&#45;E</title>
<path fill="none" stroke="black" d="M69.22,-175.01C59.92,-159.82 46.02,-137.09 36.74,-121.92"/>
<text text-anchor="middle" x="59.5" y="-144.8" font-family="Times New Roman,serif" font-size="14.00">1</text>
</g>
<!-- D -->
<g id="node5" class="node">
<title>D</title>
<ellipse fill="none" stroke="black" cx="99" cy="-105" rx="27" ry="18"/>
<text text-anchor="middle" x="99" y="-101.3" font-family="Times New Roman,serif" font-size="14.00">D</text>
</g>
<!-- C&#45;&#45;D -->
<g id="edge6" class="edge">
<title>C&#45;&#45;D</title>
<path fill="none" stroke="black" d="M83.05,-173.8C86.54,-158.95 91.56,-137.64 95.03,-122.89"/>
<text text-anchor="middle" x="93.5" y="-144.8" font-family="Times New Roman,serif" font-size="14.00">4</text>
</g>
<!-- B -->
<g id="node4" class="node">
<title>B</title>
<ellipse fill="none" stroke="black" cx="153" cy="-192" rx="27" ry="18"/>
<text text-anchor="middle" x="153" y="-188.3" font-family="Times New Roman,serif" font-size="14.00">B</text>
</g>
<!-- B&#45;&#45;D -->
<g id="edge3" class="edge">
<title>B&#45;&#45;D</title>
<path fill="none" stroke="black" d="M142.84,-175.01C133.19,-159.82 118.75,-137.09 109.11,-121.92"/>
<text text-anchor="middle" x="132.5" y="-144.8" font-family="Times New Roman,serif" font-size="14.00">2</text>
</g>
<!-- F -->
<g id="node6" class="node">
<title>F</title>
<ellipse fill="none" stroke="black" cx="171" cy="-105" rx="27" ry="18"/>
<text text-anchor="middle" x="171" y="-101.3" font-family="Times New Roman,serif" font-size="14.00">F</text>
</g>
<!-- B&#45;&#45;F -->
<g id="edge4" class="edge">
<title>B&#45;&#45;F</title>
<path fill="none" stroke="black" d="M156.64,-173.8C159.79,-158.95 164.3,-137.64 167.42,-122.89"/>
<text text-anchor="middle" x="166.5" y="-144.8" font-family="Times New Roman,serif" font-size="14.00">2</text>
</g>
<!-- F&#45;&#45;G -->
<g id="edge8" class="edge">
<title>F&#45;&#45;G</title>
<path fill="none" stroke="black" d="M158.13,-88.8C145.02,-73.33 124.83,-49.49 111.76,-34.06"/>
<text text-anchor="middle" x="142.5" y="-57.8" font-family="Times New Roman,serif" font-size="14.00">5</text>
</g>
</g>
</svg>
