<?xml version="1.0" encoding="UTF-8" standalone="no"?>
<!DOCTYPE svg PUBLIC "-//W3C//DTD SVG 1.1//EN"
 "http://www.w3.org/Graphics/SVG/1.1/DTD/svg11.dtd">
<!-- Generated by graphviz version 2.49.1 (20210923.0004)
 -->
<!-- Pages: 1 -->
<svg width="228pt" height="305pt"
 viewBox="0.00 0.00 228.00 305.00" xmlns="http://www.w3.org/2000/svg" xmlns:xlink="http://www.w3.org/1999/xlink">
<g id="graph0" class="graph" transform="scale(1 1) rotate(0) translate(4 301)">
<polygon fill="white" stroke="transparent" points="-4,4 -4,-301 224,-301 224,4 -4,4"/>
<!-- A -->
<g id="node1" class="node">
<title>A</title>
<ellipse fill="none" stroke="black" cx="27" cy="-279" rx="27" ry="18"/>
<text text-anchor="middle" x="27" y="-275.3" font-family="Times New Roman,serif" font-size="14.00">A</text>
</g>
<!-- C -->
<g id="node2" class="node">
<title>C</title>
<ellipse fill="none" stroke="black" cx="68" cy="-192" rx="27" ry="18"/>
<text text-anchor="middle" x="68" y="-188.3" font-family="Times New Roman,serif" font-size="14.00">C</text>
</g>
<!-- A&#45;&#45;C -->
<g id="edge1" class="edge">
<title>A&#45;&#45;C</title>
<path fill="none" stroke="black" d="M34.91,-261.61C42.17,-246.56 52.87,-224.37 60.12,-209.34"/>
<text text-anchor="middle" x="52.5" y="-231.8" font-family="Times New Roman,serif" font-size="14.00">5</text>
</g>
<!-- G -->
<g id="node3" class="node">
<title>G</title>
<ellipse fill="none" stroke="black" cx="29" cy="-18" rx="27" ry="18"/>
<text text-anchor="middle" x="29" y="-14.3" font-family="Times New Roman,serif" font-size="14.00">G</text>
</g>
<!-- A&#45;&#45;G -->
<g id="edge2" class="edge">
<title>A&#45;&#45;G</title>
<path fill="none" stroke="black" d="M27.13,-260.6C27.5,-213.42 28.5,-83.41 28.87,-36.32"/>
<text text-anchor="middle" x="32.5" y="-144.8" font-family="Times New Roman,serif" font-size="14.00">4</text>
</g>
<!-- F -->
<g id="node6" class="node">
<title>F</title>
<ellipse fill="none" stroke="black" cx="94" cy="-105" rx="27" ry="18"/>
<text text-anchor="middle" x="94" y="-101.3" font-family="Times New Roman,serif" font-size="14.00">F</text>
</g>
<!-- C&#45;&#45;F -->
<g id="edge5" class="edge">
<title>C&#45;&#45;F</title>
<path fill="none" stroke="black" d="M73.14,-174.21C77.69,-159.31 84.32,-137.65 88.87,-122.76"/>
<text text-anchor="middle" x="85.5" y="-144.8" font-family="Times New Roman,serif" font-size="14.00">5</text>
</g>
<!-- B -->
<g id="node4" class="node">
<title>B</title>
<ellipse fill="none" stroke="black" cx="111" cy="-279" rx="27" ry="18"/>
<text text-anchor="middle" x="111" y="-275.3" font-family="Times New Roman,serif" font-size="14.00">B</text>
</g>
<!-- B&#45;&#45;C -->
<g id="edge4" class="edge">
<title>B&#45;&#45;C</title>
<path fill="none" stroke="black" d="M102.71,-261.61C95.09,-246.56 83.87,-224.37 76.27,-209.34"/>
<text text-anchor="middle" x="95.5" y="-231.8" font-family="Times New Roman,serif" font-size="14.00">4</text>
</g>
<!-- E -->
<g id="node5" class="node">
<title>E</title>
<ellipse fill="none" stroke="black" cx="140" cy="-192" rx="27" ry="18"/>
<text text-anchor="middle" x="140" y="-188.3" font-family="Times New Roman,serif" font-size="14.00">E</text>
</g>
<!-- B&#45;&#45;E -->
<g id="edge3" class="edge">
<title>B&#45;&#45;E</title>
<path fill="none" stroke="black" d="M116.73,-261.21C121.81,-246.31 129.2,-224.65 134.28,-209.76"/>
<text text-anchor="middle" x="130.5" y="-231.8" font-family="Times New Roman,serif" font-size="14.00">3</text>
</g>
<!-- E&#45;&#45;F -->
<g id="edge8" class="edge">
<title>E&#45;&#45;F</title>
<path fill="none" stroke="black" d="M131.13,-174.61C122.93,-159.46 110.82,-137.09 102.69,-122.05"/>
<text text-anchor="middle" x="122.5" y="-144.8" font-family="Times New Roman,serif" font-size="14.00">4</text>
</g>
<!-- F&#45;&#45;G -->
<g id="edge9" class="edge">
<title>F&#45;&#45;G</title>
<path fill="none" stroke="black" d="M82.08,-88.41C70.35,-73.07 52.55,-49.79 40.85,-34.49"/>
<text text-anchor="middle" x="68.5" y="-57.8" font-family="Times New Roman,serif" font-size="14.00">4</text>
</g>
<!-- D -->
<g id="node7" class="node">
<title>D</title>
<ellipse fill="none" stroke="black" cx="193" cy="-279" rx="27" ry="18"/>
<text text-anchor="middle" x="193" y="-275.3" font-family="Times New Roman,serif" font-size="14.00">D</text>
</g>
<!-- D&#45;&#45;E -->
<g id="edge7" class="edge">
<title>D&#45;&#45;E</title>
<path fill="none" stroke="black" d="M183.03,-262.01C173.56,-246.82 159.38,-224.09 149.92,-208.92"/>
<text text-anchor="middle" x="172.5" y="-231.8" font-family="Times New Roman,serif" font-size="14.00">3</text>
</g>
<!-- D&#45;&#45;F -->
<g id="edge6" class="edge">
<title>D&#45;&#45;F</title>
<path fill="none" stroke="black" d="M193.76,-260.95C193.97,-239.3 191.73,-201.46 176,-174 161.47,-148.65 133.64,-128.69 114.46,-117.12"/>
<text text-anchor="middle" x="191.5" y="-188.3" font-family="Times New Roman,serif" font-size="14.00">2</text>
</g>
</g>
</svg>
